<?xml version="1.0"?>
<svg version="1.1" xmlns="http://www.w3.org/2000/svg" width="78px" height="41px" style="border: dashed 2px #aaa"><path fill="#" d="M0.74462890625,24.02783203125q0-0.57373046875,0.225830078125-0.848388671875t0.823974609375-0.274658203125q0.35400390625,0,0.665283203125,0.146484375t0.311279296875,0.62255859375q0.048828125,0.69580078125,0.048828125,1.458740234375t0.13427734375,1.446533203125q0.30517578125-0.50048828125,0.689697265625-1.0009765625t0.848388671875-0.89111328125t1.01318359375-0.628662109375t1.1962890625-0.238037109375q0.87890625,0,1.4892578125,0.3662109375t1.007080078125,0.9521484375t0.57373046875,1.324462890625t0.177001953125,1.483154296875q0,1.1474609375-0.347900390625,1.873779296875t-0.921630859375,1.141357421875t-1.300048828125,0.5615234375t-1.458740234375,0.146484375q-0.64697265625,0-1.20849609375-0.250244140625t-0.78125-0.946044921875q0-0.1953125,0.286865234375-0.244140625t0.408935546875-0.048828125q0.40283203125,0,0.59814453125,0.2197265625q0.146484375,0.1708984375,0.323486328125,0.347900390625t0.372314453125,0.177001953125q0.37841796875,0,0.79345703125-0.213623046875t0.762939453125-0.5615234375t0.5859375-0.823974609375t0.238037109375-0.9765625q0-0.42724609375-0.0732421875-1.06201171875t-0.250244140625-1.220703125t-0.48828125-1.01318359375t-0.787353515625-0.42724609375q-0.72021484375,0-1.300048828125,0.6591796875t-0.96435546875,1.5869140625t-0.59814453125,1.9287109375t-0.213623046875,1.67236328125t0.08544921875,1.69677734375t0.177001953125,2.130126953125t0.177001953125,2.130126953125t0.08544921875,1.69677734375q0,0.1708984375-0.140380859375,0.274658203125t-0.335693359375,0.164794921875t-0.396728515625,0.0732421875t-0.299072265625,0.01220703125q-0.32958984375,0-0.689697265625-0.0732421875t-0.494384765625-0.45166015625q-0.1708984375-0.59814453125-0.3173828125-1.702880859375t-0.262451171875-2.44140625t-0.201416015625-2.8076171875t-0.146484375-2.838134765625t-0.091552734375-2.50244140625t-0.030517578125-1.806640625z M12.447143554688,28.947265625q0-0.8544921875,0.189208984375-2.01416015625t0.640869140625-2.197265625t1.190185546875-1.763916015625t1.861572265625-0.726318359375q1.0498046875,0,1.57470703125,0.604248046875t0.52490234375,1.629638671875q0,0.67138671875-0.250244140625,1.470947265625t-0.714111328125,1.513671875t-1.0986328125,1.190185546875t-1.416015625,0.47607421875l-0.3173828125-0.0244140625q0,0.32958984375,0.09765625,0.885009765625t0.286865234375,1.104736328125t0.48828125,0.96435546875t0.726318359375,0.4150390625q0.62255859375,0,1.1962890625-0.50048828125t1.08642578125-1.11083984375t0.9521484375-1.11083984375t0.8056640625-0.50048828125q0.1953125,0,0.40283203125,0.06103515625t0.23193359375,0.341796875q0,0.1708984375-0.091552734375,0.28076171875t-0.164794921875,0.244140625q-0.37841796875,0.64697265625-0.823974609375,1.23291015625t-1.007080078125,1.06201171875t-1.226806640625,0.750732421875t-1.470947265625,0.274658203125q-1.0498046875,0-1.74560546875-0.372314453125t-1.123046875-1.0009765625t-0.616455078125-1.45263671875t-0.189208984375-1.727294921875z M14.632202148438,28.01953125l0.341796875,0.30517578125q0.244140625,0.2197265625,0.48828125,0.09765625t0.439453125-0.445556640625t0.360107421875-0.799560546875t0.29296875-0.9765625t0.189208984375-0.9765625t0.06103515625-0.79345703125l0-0.4150390625t-0.03662109375-0.439453125t-0.128173828125-0.347900390625t-0.286865234375-0.177001953125q-0.06103515625-0.01220703125-0.10986328125-0.01220703125q-0.4150390625,0-0.7080078125,0.52490234375q-0.3173828125,0.5859375-0.5126953125,1.422119140625t-0.28076171875,1.715087890625t-0.10986328125,1.318359375z M22.648193359375,28.947265625q0-0.8544921875,0.189208984375-2.01416015625t0.640869140625-2.197265625t1.190185546875-1.763916015625t1.861572265625-0.726318359375q1.0498046875,0,1.57470703125,0.604248046875t0.52490234375,1.629638671875q0,0.67138671875-0.250244140625,1.470947265625t-0.714111328125,1.513671875t-1.0986328125,1.190185546875t-1.416015625,0.47607421875l-0.3173828125-0.0244140625q0,0.32958984375,0.09765625,0.885009765625t0.286865234375,1.104736328125t0.48828125,0.96435546875t0.726318359375,0.4150390625q0.62255859375,0,1.1962890625-0.50048828125t1.08642578125-1.11083984375t0.9521484375-1.11083984375t0.8056640625-0.50048828125q0.1953125,0,0.40283203125,0.06103515625t0.23193359375,0.341796875q0,0.1708984375-0.091552734375,0.28076171875t-0.164794921875,0.244140625q-0.37841796875,0.64697265625-0.823974609375,1.23291015625t-1.007080078125,1.06201171875t-1.226806640625,0.750732421875t-1.470947265625,0.274658203125q-1.0498046875,0-1.74560546875-0.372314453125t-1.123046875-1.0009765625t-0.616455078125-1.45263671875t-0.189208984375-1.727294921875z M24.833251953125,28.01953125l0.341796875,0.30517578125q0.244140625,0.2197265625,0.48828125,0.09765625t0.439453125-0.445556640625t0.360107421875-0.799560546875t0.29296875-0.9765625t0.189208984375-0.9765625t0.06103515625-0.79345703125l0-0.4150390625t-0.03662109375-0.439453125t-0.128173828125-0.347900390625t-0.286865234375-0.177001953125q-0.06103515625-0.01220703125-0.10986328125-0.01220703125q-0.4150390625,0-0.7080078125,0.52490234375q-0.3173828125,0.5859375-0.5126953125,1.422119140625t-0.28076171875,1.715087890625t-0.10986328125,1.318359375z M32.849243164062,25.02880859375q0-0.50048828125,0.177001953125-0.84228515625t0.750732421875-0.341796875q0.2197265625,0,0.54931640625,0.067138671875t0.37841796875,0.335693359375q0.1220703125,0.72021484375,0.13427734375,1.5625t0.08544921875,1.5869140625q0.28076171875-0.54931640625,0.72021484375-1.18408203125t1.0009765625-1.171875t1.220703125-0.89111328125t1.3427734375-0.35400390625q0.048828125,0,0.18310546875,0.03662109375t0.250244140625,0.103759765625t0.140380859375,0.152587890625t-0.13427734375,0.15869140625q-0.048828125,0.146484375-0.20751953125,0.177001953125t-0.28076171875,0.030517578125q-0.0732421875,0-0.23193359375-0.06103515625q-0.9033203125,0.47607421875-1.5380859375,1.2939453125t-1.03759765625,1.812744140625t-0.5859375,2.099609375t-0.18310546875,2.154541015625q0,0.52490234375-0.238037109375,0.634765625t-0.762939453125,0.10986328125q-0.28076171875,0-0.592041015625-0.06103515625t-0.433349609375-0.390625q-0.2197265625-0.69580078125-0.360107421875-1.59912109375t-0.213623046875-1.861572265625t-0.103759765625-1.885986328125t-0.030517578125-1.67236328125z M41.5244140625,25.29736328125q0-0.50048828125,0.29296875-0.860595703125t0.714111328125-0.5859375t0.921630859375-0.335693359375t0.927734375-0.10986328125q0.32958984375,0,0.87890625,0.09765625t1.07421875,0.29296875t0.909423828125,0.5126953125t0.384521484375,0.74462890625q0,0.1953125-0.146484375,0.347900390625t-0.30517578125,0.152587890625q-0.32958984375,0-0.59814453125-0.213623046875t-0.555419921875-0.45166015625t-0.628662109375-0.45166015625t-0.76904296875-0.213623046875t-0.775146484375,0.274658203125t-0.347900390625,0.726318359375q0,0.74462890625,0.52490234375,1.458740234375t1.153564453125,1.50146484375t1.153564453125,1.654052734375t0.52490234375,1.91650390625q0,0.45166015625-0.189208984375,0.762939453125t-0.50048828125,0.506591796875t-0.701904296875,0.299072265625t-0.7568359375,0.103759765625q-0.40283203125,0-0.93994140625-0.189208984375t-1.01318359375-0.50048828125t-0.799560546875-0.726318359375t-0.323486328125-0.86669921875q0-0.2197265625,0.311279296875-0.28076171875t0.457763671875-0.06103515625q0.0732421875,0,0.225830078125,0.048828125t0.299072265625,0.10986328125t0.262451171875,0.13427734375t0.091552734375,0.15869140625q0.1220703125,0.146484375,0.372314453125,0.433349609375t0.50048828125,0.4638671875t0.439453125,0.128173828125t0.189208984375-0.54931640625q0-0.9521484375-0.5126953125-1.751708984375t-1.116943359375-1.5625t-1.116943359375-1.513671875t-0.5126953125-1.605224609375z M49.882202148438,28.6787109375q0-0.69580078125,0.177001953125-1.434326171875t0.5615234375-1.33056640625t0.970458984375-0.96435546875t1.416015625-0.372314453125q0.62255859375,0,1.312255859375,0.213623046875t1.263427734375,0.6103515625t0.933837890625,0.970458984375t0.360107421875,1.28173828125q0,0.8544921875-0.311279296875,1.62353515625t-0.872802734375,1.373291015625t-1.312255859375,0.9521484375t-1.629638671875,0.347900390625q-0.72021484375,0-1.25732421875-0.262451171875t-0.897216796875-0.701904296875t-0.537109375-1.03759765625t-0.177001953125-1.26953125z M51.676635742188,28.654296875q0,0.2197265625,0.067138671875,0.64697265625t0.201416015625,0.836181640625t0.347900390625,0.7080078125t0.518798828125,0.274658203125q0.64697265625-0.0732421875,1.068115234375-0.421142578125t0.68359375-0.848388671875t0.3662109375-1.08642578125t0.103759765625-1.11083984375q0-0.67138671875-0.262451171875-1.123046875t-0.860595703125-0.732421875q0,0.0244140625,0.0244140625,0.0244140625t0.0244140625-0.0244140625l-0.30517578125-0.0732421875q-0.1220703125-0.048828125-0.299072265625-0.10986328125t-0.347900390625-0.2685546875q-0.47607421875,0.1708984375-0.738525390625,0.439453125t-0.396728515625,0.653076171875t-0.164794921875,0.921630859375t-0.030517578125,1.2939453125z M59.131103515625,28.20263671875q0-0.87890625,0.225830078125-1.763916015625t0.701904296875-1.5869140625t1.214599609375-1.141357421875t1.739501953125-0.439453125q0.42724609375,0,0.93994140625,0.103759765625t0.946044921875,0.32958984375t0.732421875,0.5859375t0.299072265625,0.885009765625q0,0.32958984375-0.1708984375,0.439453125t-0.45166015625,0.10986328125l-0.08544921875-0.1220703125t-0.238037109375-0.311279296875t-0.323486328125-0.40283203125t-0.32958984375-0.360107421875q-0.50048828125-0.50048828125-0.93994140625-0.537109375l-0.09765625,0q-0.3662109375,0-0.68359375,0.2197265625q-0.35400390625,0.2685546875-0.628662109375,0.7568359375t-0.457763671875,1.03759765625t-0.286865234375,1.11083984375t-0.103759765625,0.927734375q0,0.50048828125,0.115966796875,1.141357421875t0.390625,1.214599609375t0.69580078125,0.96435546875t1.080322265625,0.390625q0.59814453125,0,1.08642578125-0.29296875t0.933837890625-0.653076171875t0.872802734375-0.64697265625t0.87890625-0.286865234375q0.1953125,0,0.396728515625,0.048828125t0.201416015625,0.25634765625l0,0.0732421875q-0.2197265625,0.57373046875-0.74462890625,1.01318359375t-1.177978515625,0.762939453125t-1.35498046875,0.482177734375t-1.251220703125,0.15869140625q-1.025390625,0-1.800537109375-0.335693359375t-1.287841796875-0.921630859375t-0.775146484375-1.409912109375t-0.262451171875-1.800537109375z"/><path fill="#" d=""/></svg>
